<?xml version="1.0" encoding="iso-8859-1"?>
<!-- Generator: Adobe Illustrator 18.1.1, SVG Export Plug-In . SVG Version: 6.00 Build 0)  -->
<svg version="1.1" id="Capa_1" xmlns="http://www.w3.org/2000/svg" xmlns:xlink="http://www.w3.org/1999/xlink" x="0px" y="0px"
	 viewBox="0 0 271.88 271.88" style="enable-background:new 0 0 271.88 271.88;" xml:space="preserve">
<g>
	<g>
		<path style="fill:#010002;" d="M235.095,70.164l8.437-8.437L181.811,0v184.973c-4.32-2.667-9.541-4.093-15.412-4.093
			c-13.921,0-29.966,7.739-42.938,20.711c-21.296,21.29-27.09,48.857-13.187,62.765c4.923,4.923,11.773,7.524,19.81,7.524
			c13.921,0,29.978-7.739,42.95-20.711c13.151-13.157,20.371-28.701,20.705-41.941h0.006v-0.125c0.006-0.298,0-0.591,0-0.883V28.808
			L235.095,70.164z"/>
		<rect x="28.349" y="13.127" style="fill:#010002;" width="93.978" height="11.934"/>
		<rect x="28.349" y="35.998" style="fill:#010002;" width="93.978" height="11.934"/>
		<rect x="28.349" y="59.866" style="fill:#010002;" width="93.978" height="11.934"/>
	</g>
</g>
<g>
</g>
<g>
</g>
<g>
</g>
<g>
</g>
<g>
</g>
<g>
</g>
<g>
</g>
<g>
</g>
<g>
</g>
<g>
</g>
<g>
</g>
<g>
</g>
<g>
</g>
<g>
</g>
<g>
</g>
</svg>
